<?xml version="1.0" encoding="UTF-8" standalone="no" ?>
<!DOCTYPE svg PUBLIC "-//W3C//DTD SVG 1.1//EN" "http://www.w3.org/Graphics/SVG/1.1/DTD/svg11.dtd">
<svg xmlns="http://www.w3.org/2000/svg" xmlns:xlink="http://www.w3.org/1999/xlink" version="1.1" width="1080" height="1080" viewBox="0 0 1080 1080" xml:space="preserve">
<desc>Created with Fabric.js 5.2.4</desc>
<defs>
</defs>
<g transform="matrix(1 0 0 1 540 540)" id="636b4b92-2d6c-4aae-90f9-8e31f8b0c001"  >
<rect style="stroke: none; stroke-width: 1; stroke-dasharray: none; stroke-linecap: butt; stroke-dashoffset: 0; stroke-linejoin: miter; stroke-miterlimit: 4; fill: rgb(255,255,255); fill-rule: nonzero; opacity: 1; visibility: hidden;" vector-effect="non-scaling-stroke"  x="-540" y="-540" rx="0" ry="0" width="1080" height="1080" />
</g>
<g transform="matrix(1 0 0 1 540 540)" id="f846e4eb-15a9-4d62-900d-667daee7ad81"  >
</g>
<g transform="matrix(6.59 0 0 12.21 323.28 505.58)" id="44770a70-e493-443f-b7b1-f3f5b65744b5"  >
<rect style="stroke: rgb(0,0,0); stroke-width: 0; stroke-dasharray: none; stroke-linecap: butt; stroke-dashoffset: 0; stroke-linejoin: miter; stroke-miterlimit: 4; fill: rgb(255,255,255); fill-rule: nonzero; opacity: 1;" vector-effect="non-scaling-stroke"  x="-33.0835" y="-33.0835" rx="0" ry="0" width="66.167" height="66.167" />
</g>
<g transform="matrix(6.59 0 0 12.21 790.8 517.28)" id="44770a70-e493-443f-b7b1-f3f5b65744b5"  >
<rect style="stroke: rgb(0,0,0); stroke-width: 0; stroke-dasharray: none; stroke-linecap: butt; stroke-dashoffset: 0; stroke-linejoin: miter; stroke-miterlimit: 4; fill: rgb(255,255,255); fill-rule: nonzero; opacity: 1;" vector-effect="non-scaling-stroke"  x="-33.085" y="-33.085" rx="0" ry="0" width="66.17" height="66.17" />
</g>
<g transform="matrix(52.69 0 0 55.91 540 537.8)" id="a3e988c1-4502-48f5-8090-13fa0c2c56ea"  >
<path style="stroke: rgb(0,0,0); stroke-width: 0; stroke-dasharray: none; stroke-linecap: butt; stroke-dashoffset: 0; stroke-linejoin: miter; stroke-miterlimit: 4; fill: rgb(0,0,0); fill-rule: nonzero; opacity: 1;" vector-effect="non-scaling-stroke"  transform=" translate(-12, -12.5)" d="M 21 3 L 14 3 C 13.259582848368039 3.002507825573841 12.546615577481413 3.280565061219625 12 3.7800000000000007 C 11.453384422518587 3.280565061219625 10.740417151631961 3.0025078255738404 10 3 L 3 3 C 2.4477152501692068 3 2 3.4477152501692068 2 4 L 2 19 C 2 19.552284749830793 2.4477152501692068 20 3 20 L 8.758 20 C 9.283999999999999 20 9.799999999999999 20.214 10.171999999999999 20.586 L 11.293 21.706999999999997 C 11.302 21.715999999999998 11.314 21.718999999999998 11.322999999999999 21.727999999999998 C 11.408999999999999 21.807 11.504999999999999 21.877 11.616999999999999 21.924 L 11.619 21.924 C 11.862958916490301 22.025003667487145 12.137041083509699 22.025003667487145 12.381 21.924 L 12.383000000000001 21.924 C 12.495000000000001 21.877 12.591000000000001 21.807 12.677000000000001 21.727999999999998 C 12.686000000000002 21.718999999999998 12.698000000000002 21.715999999999998 12.707 21.706999999999997 L 13.828000000000001 20.586 C 14.203909932755842 20.212286626840093 14.711936878582797 20.001746464000917 15.241999999999999 20 L 21 20 C 21.552284749830793 20 22 19.552284749830793 22 19 L 22 4 C 22 3.4477152501692068 21.552284749830793 3 21 3 z M 8.758 18 L 4 18 L 4 5 L 10 5 C 10.552 5 11 5.449 11 6 L 11 18.689 C 10.337455061355248 18.242236914816832 9.557097732714244 18.002421482420022 8.757999999999997 18 z M 20 18 L 15.242 18 C 14.443000000000001 18 13.658000000000001 18.246 13 18.689 L 13 6 C 13 5.449 13.448 5 14 5 L 20 5 L 20 18 z" stroke-linecap="round" />
</g>
</svg>